<svg width="1508" height="797" viewBox="0 0 1508 797" fill="none" xmlns="http://www.w3.org/2000/svg">
<path d="M753.842 1H712V42.8421H753.842V1Z" stroke="#222223" stroke-width="0.630746"/>
<path d="M795.684 1H753.842V42.8421H795.684V1Z" stroke="#222223" stroke-width="0.630746"/>
<path d="M837.526 1H795.684V42.8421H837.526V1Z" stroke="#222223" stroke-width="0.630746"/>
<path d="M879.368 1H837.526V42.8421H879.368V1Z" stroke="#222223" stroke-width="0.630746"/>
<path d="M921.211 1H879.368V42.8421H921.211V1Z" stroke="#222223" stroke-width="0.630746"/>
<path d="M963.053 1H921.211V42.8421H963.053V1Z" stroke="#222223" stroke-width="0.630746"/>
<path d="M1004.89 1H963.053V42.8421H1004.89V1Z" stroke="#222223" stroke-width="0.630746"/>
<path d="M1046.74 1H1004.89V42.8421H1046.74V1Z" stroke="#222223" stroke-width="0.630746"/>
<path d="M1088.58 1H1046.74V42.8421H1088.58V1Z" stroke="#222223" stroke-width="0.630746"/>
<path d="M1130.42 1H1088.58V42.8421H1130.42V1Z" stroke="#222223" stroke-width="0.630746"/>
<path d="M1172.26 1H1130.42V42.8421H1172.26V1Z" stroke="#222223" stroke-width="0.630746"/>
<path d="M1214.11 1H1172.26V42.8421H1214.11V1Z" stroke="#222223" stroke-width="0.630746"/>
<path d="M1255.95 1H1214.11V42.8421H1255.95V1Z" stroke="#222223" stroke-width="0.630746"/>
<path d="M1297.79 1H1255.95V42.8421H1297.79V1Z" stroke="#222223" stroke-width="0.630746"/>
<path d="M1339.63 1H1297.79V42.8421H1339.63V1Z" stroke="#222223" stroke-width="0.630746"/>
<path d="M1381.47 1H1339.63V42.8421H1381.47V1Z" stroke="#222223" stroke-width="0.630746"/>
<path d="M1423.32 1H1381.47V42.8421H1423.32V1Z" stroke="#222223" stroke-width="0.630746"/>
<path d="M1465.16 1H1423.32V42.8421H1465.16V1Z" stroke="#222223" stroke-width="0.630746"/>
<path d="M1507 1H1465.16V42.8421H1507V1Z" stroke="#222223" stroke-width="0.630746"/>
<path d="M753.842 42.8423H712V84.6844H753.842V42.8423Z" stroke="#222223" stroke-width="0.630746"/>
<path d="M795.684 42.8423H753.842V84.6844H795.684V42.8423Z" stroke="#222223" stroke-width="0.630746"/>
<path d="M837.526 42.8423H795.684V84.6844H837.526V42.8423Z" stroke="#222223" stroke-width="0.630746"/>
<path d="M879.368 42.8423H837.526V84.6844H879.368V42.8423Z" stroke="#222223" stroke-width="0.630746"/>
<path d="M921.211 42.8423H879.368V84.6844H921.211V42.8423Z" stroke="#222223" stroke-width="0.630746"/>
<path d="M963.053 42.8423H921.211V84.6844H963.053V42.8423Z" stroke="#222223" stroke-width="0.630746"/>
<path d="M1004.89 42.8423H963.053V84.6844H1004.89V42.8423Z" stroke="#222223" stroke-width="0.630746"/>
<path d="M1046.74 42.8423H1004.89V84.6844H1046.74V42.8423Z" stroke="#222223" stroke-width="0.630746"/>
<path d="M1088.58 42.8423H1046.74V84.6844H1088.58V42.8423Z" stroke="#222223" stroke-width="0.630746"/>
<path d="M1130.42 42.8423H1088.58V84.6844H1130.42V42.8423Z" stroke="#222223" stroke-width="0.630746"/>
<path d="M1172.26 42.8423H1130.42V84.6844H1172.26V42.8423Z" stroke="#222223" stroke-width="0.630746"/>
<path d="M1214.11 42.8423H1172.26V84.6844H1214.11V42.8423Z" stroke="#222223" stroke-width="0.630746"/>
<path d="M1255.95 42.8423H1214.11V84.6844H1255.95V42.8423Z" stroke="#222223" stroke-width="0.630746"/>
<path d="M1297.79 42.8423H1255.95V84.6844H1297.79V42.8423Z" stroke="#222223" stroke-width="0.630746"/>
<path d="M1339.63 42.8423H1297.79V84.6844H1339.63V42.8423Z" stroke="#222223" stroke-width="0.630746"/>
<path d="M1381.47 42.8423H1339.63V84.6844H1381.47V42.8423Z" stroke="#222223" stroke-width="0.630746"/>
<path d="M1423.32 42.8423H1381.47V84.6844H1423.32V42.8423Z" stroke="#222223" stroke-width="0.630746"/>
<path d="M1465.16 42.8423H1423.32V84.6844H1465.16V42.8423Z" stroke="#222223" stroke-width="0.630746"/>
<path d="M1507 42.8423H1465.16V84.6844H1507V42.8423Z" stroke="#222223" stroke-width="0.630746"/>
<path d="M753.842 84.6843H712V126.526H753.842V84.6843Z" stroke="#222223" stroke-width="0.630746"/>
<path d="M795.684 84.6843H753.842V126.526H795.684V84.6843Z" stroke="#222223" stroke-width="0.630746"/>
<path d="M837.526 84.6843H795.684V126.526H837.526V84.6843Z" stroke="#222223" stroke-width="0.630746"/>
<path d="M879.368 84.6843H837.526V126.526H879.368V84.6843Z" stroke="#222223" stroke-width="0.630746"/>
<path d="M921.211 84.6843H879.368V126.526H921.211V84.6843Z" stroke="#222223" stroke-width="0.630746"/>
<path d="M963.053 84.6843H921.211V126.526H963.053V84.6843Z" stroke="#222223" stroke-width="0.630746"/>
<path d="M1004.89 84.6843H963.053V126.526H1004.89V84.6843Z" stroke="#222223" stroke-width="0.630746"/>
<path d="M1046.74 84.6843H1004.89V126.526H1046.74V84.6843Z" stroke="#222223" stroke-width="0.630746"/>
<path d="M1088.58 84.6843H1046.74V126.526H1088.58V84.6843Z" stroke="#222223" stroke-width="0.630746"/>
<path d="M1130.42 84.6843H1088.58V126.526H1130.42V84.6843Z" stroke="#222223" stroke-width="0.630746"/>
<path d="M1172.26 84.6843H1130.42V126.526H1172.26V84.6843Z" stroke="#222223" stroke-width="0.630746"/>
<path d="M1214.11 84.6843H1172.26V126.526H1214.11V84.6843Z" stroke="#222223" stroke-width="0.630746"/>
<path d="M1255.95 84.6843H1214.11V126.526H1255.95V84.6843Z" stroke="#222223" stroke-width="0.630746"/>
<path d="M1297.79 84.6843H1255.95V126.526H1297.79V84.6843Z" stroke="#222223" stroke-width="0.630746"/>
<path d="M1339.63 84.6843H1297.79V126.526H1339.63V84.6843Z" stroke="#222223" stroke-width="0.630746"/>
<path d="M1381.47 84.6843H1339.63V126.526H1381.47V84.6843Z" stroke="#222223" stroke-width="0.630746"/>
<path d="M1423.32 84.6843H1381.47V126.526H1423.32V84.6843Z" stroke="#222223" stroke-width="0.630746"/>
<path d="M1465.16 84.6843H1423.32V126.526H1465.16V84.6843Z" stroke="#222223" stroke-width="0.630746"/>
<path d="M1507 84.6843H1465.16V126.526H1507V84.6843Z" stroke="#222223" stroke-width="0.630746"/>
<path d="M753.842 126.526H712V168.368H753.842V126.526Z" stroke="#222223" stroke-width="0.630746"/>
<path d="M795.684 126.526H753.842V168.368H795.684V126.526Z" stroke="#222223" stroke-width="0.630746"/>
<path d="M837.526 126.526H795.684V168.368H837.526V126.526Z" stroke="#222223" stroke-width="0.630746"/>
<path d="M879.368 126.526H837.526V168.368H879.368V126.526Z" stroke="#222223" stroke-width="0.630746"/>
<path d="M921.211 126.526H879.368V168.368H921.211V126.526Z" stroke="#222223" stroke-width="0.630746"/>
<path d="M963.053 126.526H921.211V168.368H963.053V126.526Z" stroke="#222223" stroke-width="0.630746"/>
<path d="M1004.89 126.526H963.053V168.368H1004.89V126.526Z" stroke="#222223" stroke-width="0.630746"/>
<path d="M1046.74 126.526H1004.89V168.368H1046.74V126.526Z" stroke="#222223" stroke-width="0.630746"/>
<path d="M1088.58 126.526H1046.74V168.368H1088.58V126.526Z" stroke="#222223" stroke-width="0.630746"/>
<path d="M1130.42 126.526H1088.58V168.368H1130.42V126.526Z" stroke="#222223" stroke-width="0.630746"/>
<path d="M1172.26 126.526H1130.42V168.368H1172.26V126.526Z" stroke="#222223" stroke-width="0.630746"/>
<path d="M1214.11 126.526H1172.26V168.368H1214.11V126.526Z" stroke="#222223" stroke-width="0.630746"/>
<path d="M1255.95 126.526H1214.11V168.368H1255.95V126.526Z" stroke="#222223" stroke-width="0.630746"/>
<path d="M1297.79 126.526H1255.95V168.368H1297.79V126.526Z" stroke="#222223" stroke-width="0.630746"/>
<path d="M1339.63 126.526H1297.79V168.368H1339.63V126.526Z" stroke="#222223" stroke-width="0.630746"/>
<path d="M1381.47 126.526H1339.63V168.368H1381.47V126.526Z" stroke="#222223" stroke-width="0.630746"/>
<path d="M1423.32 126.526H1381.47V168.368H1423.32V126.526Z" stroke="#222223" stroke-width="0.630746"/>
<path d="M1465.16 126.526H1423.32V168.368H1465.16V126.526Z" stroke="#222223" stroke-width="0.630746"/>
<path d="M1507 126.526H1465.16V168.368H1507V126.526Z" stroke="#222223" stroke-width="0.630746"/>
<path d="M753.842 168.369H712V210.211H753.842V168.369Z" stroke="#222223" stroke-width="0.630746"/>
<path d="M795.684 168.369H753.842V210.211H795.684V168.369Z" stroke="#222223" stroke-width="0.630746"/>
<path d="M837.526 168.369H795.684V210.211H837.526V168.369Z" stroke="#222223" stroke-width="0.630746"/>
<path d="M879.368 168.369H837.526V210.211H879.368V168.369Z" stroke="#222223" stroke-width="0.630746"/>
<path d="M921.211 168.369H879.368V210.211H921.211V168.369Z" stroke="#222223" stroke-width="0.630746"/>
<path d="M963.053 168.369H921.211V210.211H963.053V168.369Z" stroke="#222223" stroke-width="0.630746"/>
<path d="M1004.89 168.369H963.053V210.211H1004.89V168.369Z" stroke="#222223" stroke-width="0.630746"/>
<path d="M1046.74 168.369H1004.89V210.211H1046.74V168.369Z" stroke="#222223" stroke-width="0.630746"/>
<path d="M1088.58 168.369H1046.74V210.211H1088.58V168.369Z" stroke="#222223" stroke-width="0.630746"/>
<path d="M1130.42 168.369H1088.58V210.211H1130.42V168.369Z" stroke="#222223" stroke-width="0.630746"/>
<path d="M1172.26 168.369H1130.42V210.211H1172.26V168.369Z" stroke="#222223" stroke-width="0.630746"/>
<path d="M1214.11 168.369H1172.26V210.211H1214.11V168.369Z" stroke="#222223" stroke-width="0.630746"/>
<path d="M1255.95 168.369H1214.11V210.211H1255.95V168.369Z" stroke="#222223" stroke-width="0.630746"/>
<path d="M1297.79 168.369H1255.95V210.211H1297.79V168.369Z" stroke="#222223" stroke-width="0.630746"/>
<path d="M1339.63 168.369H1297.79V210.211H1339.63V168.369Z" stroke="#222223" stroke-width="0.630746"/>
<path d="M1381.47 168.369H1339.63V210.211H1381.47V168.369Z" stroke="#222223" stroke-width="0.630746"/>
<path d="M1423.32 168.369H1381.47V210.211H1423.32V168.369Z" stroke="#222223" stroke-width="0.630746"/>
<path d="M1465.16 168.369H1423.32V210.211H1465.16V168.369Z" stroke="#222223" stroke-width="0.630746"/>
<path d="M1507 168.369H1465.16V210.211H1507V168.369Z" stroke="#222223" stroke-width="0.630746"/>
<path d="M753.842 210.211H712V252.053H753.842V210.211Z" stroke="#222223" stroke-width="0.630746"/>
<path d="M795.684 210.211H753.842V252.053H795.684V210.211Z" stroke="#222223" stroke-width="0.630746"/>
<path d="M837.526 210.211H795.684V252.053H837.526V210.211Z" stroke="#222223" stroke-width="0.630746"/>
<path d="M879.368 210.211H837.526V252.053H879.368V210.211Z" stroke="#222223" stroke-width="0.630746"/>
<path d="M921.211 210.211H879.368V252.053H921.211V210.211Z" stroke="#222223" stroke-width="0.630746"/>
<path d="M963.053 210.211H921.211V252.053H963.053V210.211Z" stroke="#222223" stroke-width="0.630746"/>
<path d="M1004.89 210.211H963.053V252.053H1004.89V210.211Z" stroke="#222223" stroke-width="0.630746"/>
<path d="M1046.74 210.211H1004.89V252.053H1046.74V210.211Z" stroke="#222223" stroke-width="0.630746"/>
<path d="M1088.58 210.211H1046.74V252.053H1088.58V210.211Z" stroke="#222223" stroke-width="0.630746"/>
<path d="M1130.42 210.211H1088.58V252.053H1130.42V210.211Z" stroke="#222223" stroke-width="0.630746"/>
<path d="M1172.26 210.211H1130.42V252.053H1172.26V210.211Z" stroke="#222223" stroke-width="0.630746"/>
<path d="M1214.11 210.211H1172.26V252.053H1214.11V210.211Z" stroke="#222223" stroke-width="0.630746"/>
<path d="M1255.95 210.211H1214.11V252.053H1255.95V210.211Z" stroke="#222223" stroke-width="0.630746"/>
<path d="M1297.79 210.211H1255.95V252.053H1297.79V210.211Z" stroke="#222223" stroke-width="0.630746"/>
<path d="M1339.63 210.211H1297.79V252.053H1339.63V210.211Z" stroke="#222223" stroke-width="0.630746"/>
<path d="M1381.47 210.211H1339.63V252.053H1381.47V210.211Z" stroke="#222223" stroke-width="0.630746"/>
<path d="M1423.32 210.211H1381.47V252.053H1423.32V210.211Z" stroke="#222223" stroke-width="0.630746"/>
<path d="M1465.16 210.211H1423.32V252.053H1465.16V210.211Z" stroke="#222223" stroke-width="0.630746"/>
<path d="M1507 210.211H1465.16V252.053H1507V210.211Z" stroke="#222223" stroke-width="0.630746"/>
<path d="M753.842 252.053H712V293.895H753.842V252.053Z" stroke="#222223" stroke-width="0.630746"/>
<path d="M795.684 252.053H753.842V293.895H795.684V252.053Z" stroke="#222223" stroke-width="0.630746"/>
<path d="M837.526 252.053H795.684V293.895H837.526V252.053Z" stroke="#222223" stroke-width="0.630746"/>
<path d="M879.368 252.053H837.526V293.895H879.368V252.053Z" stroke="#222223" stroke-width="0.630746"/>
<path d="M921.211 252.053H879.368V293.895H921.211V252.053Z" stroke="#222223" stroke-width="0.630746"/>
<path d="M963.053 252.053H921.211V293.895H963.053V252.053Z" stroke="#222223" stroke-width="0.630746"/>
<path d="M1004.89 252.053H963.053V293.895H1004.89V252.053Z" stroke="#222223" stroke-width="0.630746"/>
<path d="M1046.74 252.053H1004.89V293.895H1046.74V252.053Z" stroke="#222223" stroke-width="0.630746"/>
<path d="M1088.58 252.053H1046.74V293.895H1088.58V252.053Z" stroke="#222223" stroke-width="0.630746"/>
<path d="M1130.42 252.053H1088.58V293.895H1130.42V252.053Z" stroke="#222223" stroke-width="0.630746"/>
<path d="M1172.26 252.053H1130.42V293.895H1172.26V252.053Z" stroke="#222223" stroke-width="0.630746"/>
<path d="M1214.11 252.053H1172.26V293.895H1214.11V252.053Z" stroke="#222223" stroke-width="0.630746"/>
<path d="M1255.95 252.053H1214.11V293.895H1255.95V252.053Z" stroke="#222223" stroke-width="0.630746"/>
<path d="M1297.79 252.053H1255.95V293.895H1297.79V252.053Z" stroke="#222223" stroke-width="0.630746"/>
<path d="M1339.63 252.053H1297.79V293.895H1339.63V252.053Z" stroke="#222223" stroke-width="0.630746"/>
<path d="M1381.47 252.053H1339.63V293.895H1381.47V252.053Z" stroke="#222223" stroke-width="0.630746"/>
<path d="M1423.32 252.053H1381.47V293.895H1423.32V252.053Z" stroke="#222223" stroke-width="0.630746"/>
<path d="M1465.16 252.053H1423.32V293.895H1465.16V252.053Z" stroke="#222223" stroke-width="0.630746"/>
<path d="M1507 252.053H1465.16V293.895H1507V252.053Z" stroke="#222223" stroke-width="0.630746"/>
<path d="M753.842 293.895H712V335.737H753.842V293.895Z" stroke="#222223" stroke-width="0.630746"/>
<path d="M795.684 293.895H753.842V335.737H795.684V293.895Z" stroke="#222223" stroke-width="0.630746"/>
<path d="M837.526 293.895H795.684V335.737H837.526V293.895Z" stroke="#222223" stroke-width="0.630746"/>
<path d="M879.368 293.895H837.526V335.737H879.368V293.895Z" stroke="#222223" stroke-width="0.630746"/>
<path d="M921.211 293.895H879.368V335.737H921.211V293.895Z" stroke="#222223" stroke-width="0.630746"/>
<path d="M963.053 293.895H921.211V335.737H963.053V293.895Z" stroke="#222223" stroke-width="0.630746"/>
<path d="M1004.89 293.895H963.053V335.737H1004.89V293.895Z" stroke="#222223" stroke-width="0.630746"/>
<path d="M1046.74 293.895H1004.89V335.737H1046.74V293.895Z" stroke="#222223" stroke-width="0.630746"/>
<path d="M1088.58 293.895H1046.74V335.737H1088.58V293.895Z" stroke="#222223" stroke-width="0.630746"/>
<path d="M1130.42 293.895H1088.58V335.737H1130.42V293.895Z" stroke="#222223" stroke-width="0.630746"/>
<path d="M1172.26 293.895H1130.42V335.737H1172.26V293.895Z" stroke="#222223" stroke-width="0.630746"/>
<path d="M1214.11 293.895H1172.26V335.737H1214.11V293.895Z" stroke="#222223" stroke-width="0.630746"/>
<path d="M1255.95 293.895H1214.11V335.737H1255.95V293.895Z" stroke="#222223" stroke-width="0.630746"/>
<path d="M1297.79 293.895H1255.95V335.737H1297.79V293.895Z" stroke="#222223" stroke-width="0.630746"/>
<path d="M1339.63 293.895H1297.79V335.737H1339.63V293.895Z" stroke="#222223" stroke-width="0.630746"/>
<path d="M1381.47 293.895H1339.63V335.737H1381.47V293.895Z" stroke="#222223" stroke-width="0.630746"/>
<path d="M1423.32 293.895H1381.47V335.737H1423.32V293.895Z" stroke="#222223" stroke-width="0.630746"/>
<path d="M1465.16 293.895H1423.32V335.737H1465.16V293.895Z" stroke="#222223" stroke-width="0.630746"/>
<path d="M1507 293.895H1465.16V335.737H1507V293.895Z" stroke="#222223" stroke-width="0.630746"/>
<path d="M753.842 335.737H712V377.579H753.842V335.737Z" stroke="#222223" stroke-width="0.630746"/>
<path d="M795.684 335.737H753.842V377.579H795.684V335.737Z" stroke="#222223" stroke-width="0.630746"/>
<path d="M837.526 335.737H795.684V377.579H837.526V335.737Z" stroke="#222223" stroke-width="0.630746"/>
<path d="M879.368 335.737H837.526V377.579H879.368V335.737Z" stroke="#222223" stroke-width="0.630746"/>
<path d="M921.211 335.737H879.368V377.579H921.211V335.737Z" stroke="#222223" stroke-width="0.630746"/>
<path d="M963.053 335.737H921.211V377.579H963.053V335.737Z" stroke="#222223" stroke-width="0.630746"/>
<path d="M1004.89 335.737H963.053V377.579H1004.89V335.737Z" stroke="#222223" stroke-width="0.630746"/>
<path d="M1046.74 335.737H1004.89V377.579H1046.74V335.737Z" stroke="#222223" stroke-width="0.630746"/>
<path d="M1088.58 335.737H1046.74V377.579H1088.58V335.737Z" stroke="#222223" stroke-width="0.630746"/>
<path d="M1130.42 335.737H1088.58V377.579H1130.42V335.737Z" stroke="#222223" stroke-width="0.630746"/>
<path d="M1172.26 335.737H1130.42V377.579H1172.26V335.737Z" stroke="#222223" stroke-width="0.630746"/>
<path d="M1214.11 335.737H1172.26V377.579H1214.11V335.737Z" stroke="#222223" stroke-width="0.630746"/>
<path d="M1255.95 335.737H1214.11V377.579H1255.95V335.737Z" stroke="#222223" stroke-width="0.630746"/>
<path d="M1297.79 335.737H1255.95V377.579H1297.79V335.737Z" stroke="#222223" stroke-width="0.630746"/>
<path d="M1339.63 335.737H1297.79V377.579H1339.63V335.737Z" stroke="#222223" stroke-width="0.630746"/>
<path d="M1381.47 335.737H1339.63V377.579H1381.47V335.737Z" stroke="#222223" stroke-width="0.630746"/>
<path d="M1423.32 335.737H1381.47V377.579H1423.32V335.737Z" stroke="#222223" stroke-width="0.630746"/>
<path d="M1465.16 335.737H1423.32V377.579H1465.16V335.737Z" stroke="#222223" stroke-width="0.630746"/>
<path d="M1507 335.737H1465.16V377.579H1507V335.737Z" stroke="#222223" stroke-width="0.630746"/>
<path d="M753.842 377.579H712V419.421H753.842V377.579Z" stroke="#222223" stroke-width="0.630746"/>
<path d="M795.684 377.579H753.842V419.421H795.684V377.579Z" stroke="#222223" stroke-width="0.630746"/>
<path d="M837.526 377.579H795.684V419.421H837.526V377.579Z" stroke="#222223" stroke-width="0.630746"/>
<path d="M879.368 377.579H837.526V419.421H879.368V377.579Z" stroke="#222223" stroke-width="0.630746"/>
<path d="M921.211 377.579H879.368V419.421H921.211V377.579Z" stroke="#222223" stroke-width="0.630746"/>
<path d="M963.053 377.579H921.211V419.421H963.053V377.579Z" stroke="#222223" stroke-width="0.630746"/>
<path d="M1004.89 377.579H963.053V419.421H1004.89V377.579Z" stroke="#222223" stroke-width="0.630746"/>
<path d="M1046.74 377.579H1004.89V419.421H1046.74V377.579Z" stroke="#222223" stroke-width="0.630746"/>
<path d="M1088.58 377.579H1046.74V419.421H1088.58V377.579Z" stroke="#222223" stroke-width="0.630746"/>
<path d="M1130.42 377.579H1088.58V419.421H1130.42V377.579Z" stroke="#222223" stroke-width="0.630746"/>
<path d="M1172.26 377.579H1130.42V419.421H1172.26V377.579Z" stroke="#222223" stroke-width="0.630746"/>
<path d="M1214.11 377.579H1172.26V419.421H1214.11V377.579Z" stroke="#222223" stroke-width="0.630746"/>
<path d="M1255.95 377.579H1214.11V419.421H1255.95V377.579Z" stroke="#222223" stroke-width="0.630746"/>
<path d="M1297.79 377.579H1255.95V419.421H1297.79V377.579Z" stroke="#222223" stroke-width="0.630746"/>
<path d="M1339.63 377.579H1297.79V419.421H1339.63V377.579Z" stroke="#222223" stroke-width="0.630746"/>
<path d="M1381.47 377.579H1339.63V419.421H1381.47V377.579Z" stroke="#222223" stroke-width="0.630746"/>
<path d="M1423.32 377.579H1381.47V419.421H1423.32V377.579Z" stroke="#222223" stroke-width="0.630746"/>
<path d="M1465.16 377.579H1423.32V419.421H1465.16V377.579Z" stroke="#222223" stroke-width="0.630746"/>
<path d="M1507 377.579H1465.16V419.421H1507V377.579Z" stroke="#222223" stroke-width="0.630746"/>
<path d="M753.842 419.421H712V461.263H753.842V419.421Z" stroke="#222223" stroke-width="0.630746"/>
<path d="M795.684 419.421H753.842V461.263H795.684V419.421Z" stroke="#222223" stroke-width="0.630746"/>
<path d="M837.526 419.421H795.684V461.263H837.526V419.421Z" stroke="#222223" stroke-width="0.630746"/>
<path d="M879.368 419.421H837.526V461.263H879.368V419.421Z" stroke="#222223" stroke-width="0.630746"/>
<path d="M921.211 419.421H879.368V461.263H921.211V419.421Z" stroke="#222223" stroke-width="0.630746"/>
<path d="M963.053 419.421H921.211V461.263H963.053V419.421Z" stroke="#222223" stroke-width="0.630746"/>
<path d="M1004.89 419.421H963.053V461.263H1004.89V419.421Z" stroke="#222223" stroke-width="0.630746"/>
<path d="M1046.74 419.421H1004.89V461.263H1046.74V419.421Z" stroke="#222223" stroke-width="0.630746"/>
<path d="M1088.58 419.421H1046.74V461.263H1088.58V419.421Z" stroke="#222223" stroke-width="0.630746"/>
<path d="M1130.42 419.421H1088.58V461.263H1130.42V419.421Z" stroke="#222223" stroke-width="0.630746"/>
<path d="M1172.26 419.421H1130.42V461.263H1172.26V419.421Z" stroke="#222223" stroke-width="0.630746"/>
<path d="M1214.11 419.421H1172.26V461.263H1214.11V419.421Z" stroke="#222223" stroke-width="0.630746"/>
<path d="M1255.95 419.421H1214.11V461.263H1255.95V419.421Z" stroke="#222223" stroke-width="0.630746"/>
<path d="M1297.79 419.421H1255.95V461.263H1297.79V419.421Z" stroke="#222223" stroke-width="0.630746"/>
<path d="M1339.63 419.421H1297.79V461.263H1339.63V419.421Z" stroke="#222223" stroke-width="0.630746"/>
<path d="M1381.47 419.421H1339.63V461.263H1381.47V419.421Z" stroke="#222223" stroke-width="0.630746"/>
<path d="M1423.32 419.421H1381.47V461.263H1423.32V419.421Z" stroke="#222223" stroke-width="0.630746"/>
<path d="M1465.16 419.421H1423.32V461.263H1465.16V419.421Z" stroke="#222223" stroke-width="0.630746"/>
<path d="M1507 419.421H1465.16V461.263H1507V419.421Z" stroke="#222223" stroke-width="0.630746"/>
<path d="M753.842 461.263H712V503.105H753.842V461.263Z" stroke="#222223" stroke-width="0.630746"/>
<path d="M795.684 461.263H753.842V503.105H795.684V461.263Z" stroke="#222223" stroke-width="0.630746"/>
<path d="M837.526 461.263H795.684V503.105H837.526V461.263Z" stroke="#222223" stroke-width="0.630746"/>
<path d="M879.368 461.263H837.526V503.105H879.368V461.263Z" stroke="#222223" stroke-width="0.630746"/>
<path d="M921.211 461.263H879.368V503.105H921.211V461.263Z" stroke="#222223" stroke-width="0.630746"/>
<path d="M963.053 461.263H921.211V503.105H963.053V461.263Z" stroke="#222223" stroke-width="0.630746"/>
<path d="M1004.89 461.263H963.053V503.105H1004.89V461.263Z" stroke="#222223" stroke-width="0.630746"/>
<path d="M1046.74 461.263H1004.89V503.105H1046.74V461.263Z" stroke="#222223" stroke-width="0.630746"/>
<path d="M1088.58 461.263H1046.74V503.105H1088.58V461.263Z" stroke="#222223" stroke-width="0.630746"/>
<path d="M1130.42 461.263H1088.58V503.105H1130.42V461.263Z" stroke="#222223" stroke-width="0.630746"/>
<path d="M1172.26 461.263H1130.42V503.105H1172.26V461.263Z" stroke="#222223" stroke-width="0.630746"/>
<path d="M1214.11 461.263H1172.26V503.105H1214.11V461.263Z" stroke="#222223" stroke-width="0.630746"/>
<path d="M1255.95 461.263H1214.11V503.105H1255.95V461.263Z" stroke="#222223" stroke-width="0.630746"/>
<path d="M1297.79 461.263H1255.95V503.105H1297.79V461.263Z" stroke="#222223" stroke-width="0.630746"/>
<path d="M1339.63 461.263H1297.79V503.105H1339.63V461.263Z" stroke="#222223" stroke-width="0.630746"/>
<path d="M1381.47 461.263H1339.63V503.105H1381.47V461.263Z" stroke="#222223" stroke-width="0.630746"/>
<path d="M1423.32 461.263H1381.47V503.105H1423.32V461.263Z" stroke="#222223" stroke-width="0.630746"/>
<path d="M1465.16 461.263H1423.32V503.105H1465.16V461.263Z" stroke="#222223" stroke-width="0.630746"/>
<path d="M1507 461.263H1465.16V503.105H1507V461.263Z" stroke="#222223" stroke-width="0.630746"/>
<path d="M753.842 503.105H712V544.947H753.842V503.105Z" stroke="#222223" stroke-width="0.630746"/>
<path d="M795.684 503.105H753.842V544.947H795.684V503.105Z" stroke="#222223" stroke-width="0.630746"/>
<path d="M837.526 503.105H795.684V544.947H837.526V503.105Z" stroke="#222223" stroke-width="0.630746"/>
<path d="M879.368 503.105H837.526V544.947H879.368V503.105Z" stroke="#222223" stroke-width="0.630746"/>
<path d="M921.211 503.105H879.368V544.947H921.211V503.105Z" stroke="#222223" stroke-width="0.630746"/>
<path d="M963.053 503.105H921.211V544.947H963.053V503.105Z" stroke="#222223" stroke-width="0.630746"/>
<path d="M1004.89 503.105H963.053V544.947H1004.89V503.105Z" stroke="#222223" stroke-width="0.630746"/>
<path d="M1046.74 503.105H1004.89V544.947H1046.74V503.105Z" stroke="#222223" stroke-width="0.630746"/>
<path d="M1088.58 503.105H1046.74V544.947H1088.58V503.105Z" stroke="#222223" stroke-width="0.630746"/>
<path d="M1130.42 503.105H1088.58V544.947H1130.42V503.105Z" stroke="#222223" stroke-width="0.630746"/>
<path d="M1172.26 503.105H1130.42V544.947H1172.26V503.105Z" stroke="#222223" stroke-width="0.630746"/>
<path d="M1214.11 503.105H1172.26V544.947H1214.11V503.105Z" stroke="#222223" stroke-width="0.630746"/>
<path d="M1255.95 503.105H1214.11V544.947H1255.95V503.105Z" stroke="#222223" stroke-width="0.630746"/>
<path d="M1297.79 503.105H1255.95V544.947H1297.79V503.105Z" stroke="#222223" stroke-width="0.630746"/>
<path d="M1339.63 503.105H1297.79V544.947H1339.63V503.105Z" stroke="#222223" stroke-width="0.630746"/>
<path d="M1381.47 503.105H1339.63V544.947H1381.47V503.105Z" stroke="#222223" stroke-width="0.630746"/>
<path d="M1423.32 503.105H1381.47V544.947H1423.32V503.105Z" stroke="#222223" stroke-width="0.630746"/>
<path d="M1465.16 503.105H1423.32V544.947H1465.16V503.105Z" stroke="#222223" stroke-width="0.630746"/>
<path d="M1507 503.105H1465.16V544.947H1507V503.105Z" stroke="#222223" stroke-width="0.630746"/>
<path d="M753.842 544.948H712V586.79H753.842V544.948Z" stroke="#222223" stroke-width="0.630746"/>
<path d="M795.684 544.948H753.842V586.79H795.684V544.948Z" stroke="#222223" stroke-width="0.630746"/>
<path d="M837.526 544.948H795.684V586.79H837.526V544.948Z" stroke="#222223" stroke-width="0.630746"/>
<path d="M879.368 544.948H837.526V586.79H879.368V544.948Z" stroke="#222223" stroke-width="0.630746"/>
<path d="M921.211 544.948H879.368V586.79H921.211V544.948Z" stroke="#222223" stroke-width="0.630746"/>
<path d="M963.053 544.948H921.211V586.79H963.053V544.948Z" stroke="#222223" stroke-width="0.630746"/>
<path d="M1004.89 544.948H963.053V586.79H1004.89V544.948Z" stroke="#222223" stroke-width="0.630746"/>
<path d="M1046.74 544.948H1004.89V586.79H1046.74V544.948Z" stroke="#222223" stroke-width="0.630746"/>
<path d="M1088.58 544.948H1046.74V586.79H1088.58V544.948Z" stroke="#222223" stroke-width="0.630746"/>
<path d="M1130.42 544.948H1088.58V586.79H1130.42V544.948Z" stroke="#222223" stroke-width="0.630746"/>
<path d="M1172.26 544.948H1130.42V586.79H1172.26V544.948Z" stroke="#222223" stroke-width="0.630746"/>
<path d="M1214.11 544.948H1172.26V586.79H1214.11V544.948Z" stroke="#222223" stroke-width="0.630746"/>
<path d="M1255.95 544.948H1214.11V586.79H1255.95V544.948Z" stroke="#222223" stroke-width="0.630746"/>
<path d="M1297.79 544.948H1255.95V586.79H1297.79V544.948Z" stroke="#222223" stroke-width="0.630746"/>
<path d="M1339.63 544.948H1297.79V586.79H1339.63V544.948Z" stroke="#222223" stroke-width="0.630746"/>
<path d="M1381.47 544.948H1339.63V586.79H1381.47V544.948Z" stroke="#222223" stroke-width="0.630746"/>
<path d="M1423.32 544.948H1381.47V586.79H1423.32V544.948Z" stroke="#222223" stroke-width="0.630746"/>
<path d="M1465.16 544.948H1423.32V586.79H1465.16V544.948Z" stroke="#222223" stroke-width="0.630746"/>
<path d="M1507 544.948H1465.16V586.79H1507V544.948Z" stroke="#222223" stroke-width="0.630746"/>
<path d="M753.842 586.79H712V628.632H753.842V586.79Z" stroke="#222223" stroke-width="0.630746"/>
<path d="M795.684 586.79H753.842V628.632H795.684V586.79Z" stroke="#222223" stroke-width="0.630746"/>
<path d="M837.526 586.79H795.684V628.632H837.526V586.79Z" stroke="#222223" stroke-width="0.630746"/>
<path d="M879.368 586.79H837.526V628.632H879.368V586.79Z" stroke="#222223" stroke-width="0.630746"/>
<path d="M921.211 586.79H879.368V628.632H921.211V586.79Z" stroke="#222223" stroke-width="0.630746"/>
<path d="M963.053 586.79H921.211V628.632H963.053V586.79Z" stroke="#222223" stroke-width="0.630746"/>
<path d="M1004.89 586.79H963.053V628.632H1004.89V586.79Z" stroke="#222223" stroke-width="0.630746"/>
<path d="M1046.74 586.79H1004.89V628.632H1046.74V586.79Z" stroke="#222223" stroke-width="0.630746"/>
<path d="M1088.58 586.79H1046.74V628.632H1088.58V586.79Z" stroke="#222223" stroke-width="0.630746"/>
<path d="M1130.42 586.79H1088.58V628.632H1130.42V586.79Z" stroke="#222223" stroke-width="0.630746"/>
<path d="M1172.26 586.79H1130.42V628.632H1172.26V586.79Z" stroke="#222223" stroke-width="0.630746"/>
<path d="M1214.11 586.79H1172.26V628.632H1214.11V586.79Z" stroke="#222223" stroke-width="0.630746"/>
<path d="M1255.95 586.79H1214.11V628.632H1255.95V586.79Z" stroke="#222223" stroke-width="0.630746"/>
<path d="M1297.79 586.79H1255.95V628.632H1297.79V586.79Z" stroke="#222223" stroke-width="0.630746"/>
<path d="M1339.63 586.79H1297.79V628.632H1339.63V586.79Z" stroke="#222223" stroke-width="0.630746"/>
<path d="M1381.47 586.79H1339.63V628.632H1381.47V586.79Z" stroke="#222223" stroke-width="0.630746"/>
<path d="M1423.32 586.79H1381.47V628.632H1423.32V586.79Z" stroke="#222223" stroke-width="0.630746"/>
<path d="M1465.16 586.79H1423.32V628.632H1465.16V586.79Z" stroke="#222223" stroke-width="0.630746"/>
<path d="M1507 586.79H1465.16V628.632H1507V586.79Z" stroke="#222223" stroke-width="0.630746"/>
<path d="M753.842 628.632H712V670.474H753.842V628.632Z" stroke="#222223" stroke-width="0.630746"/>
<path d="M795.684 628.632H753.842V670.474H795.684V628.632Z" stroke="#222223" stroke-width="0.630746"/>
<path d="M837.526 628.632H795.684V670.474H837.526V628.632Z" stroke="#222223" stroke-width="0.630746"/>
<path d="M879.368 628.632H837.526V670.474H879.368V628.632Z" stroke="#222223" stroke-width="0.630746"/>
<path d="M921.211 628.632H879.368V670.474H921.211V628.632Z" stroke="#222223" stroke-width="0.630746"/>
<path d="M963.053 628.632H921.211V670.474H963.053V628.632Z" stroke="#222223" stroke-width="0.630746"/>
<path d="M1004.89 628.632H963.053V670.474H1004.89V628.632Z" stroke="#222223" stroke-width="0.630746"/>
<path d="M1046.74 628.632H1004.89V670.474H1046.74V628.632Z" stroke="#222223" stroke-width="0.630746"/>
<path d="M1088.58 628.632H1046.74V670.474H1088.58V628.632Z" stroke="#222223" stroke-width="0.630746"/>
<path d="M1130.42 628.632H1088.58V670.474H1130.42V628.632Z" stroke="#222223" stroke-width="0.630746"/>
<path d="M1172.26 628.632H1130.42V670.474H1172.26V628.632Z" stroke="#222223" stroke-width="0.630746"/>
<path d="M1214.11 628.632H1172.26V670.474H1214.11V628.632Z" stroke="#222223" stroke-width="0.630746"/>
<path d="M1255.95 628.632H1214.11V670.474H1255.95V628.632Z" stroke="#222223" stroke-width="0.630746"/>
<path d="M1297.79 628.632H1255.95V670.474H1297.79V628.632Z" stroke="#222223" stroke-width="0.630746"/>
<path d="M1339.63 628.632H1297.79V670.474H1339.63V628.632Z" stroke="#222223" stroke-width="0.630746"/>
<path d="M1381.47 628.632H1339.63V670.474H1381.47V628.632Z" stroke="#222223" stroke-width="0.630746"/>
<path d="M1423.32 628.632H1381.47V670.474H1423.32V628.632Z" stroke="#222223" stroke-width="0.630746"/>
<path d="M1465.16 628.632H1423.32V670.474H1465.16V628.632Z" stroke="#222223" stroke-width="0.630746"/>
<path d="M1507 628.632H1465.16V670.474H1507V628.632Z" stroke="#222223" stroke-width="0.630746"/>
<path d="M753.842 670.474H712V712.316H753.842V670.474Z" stroke="#222223" stroke-width="0.630746"/>
<path d="M795.684 670.474H753.842V712.316H795.684V670.474Z" stroke="#222223" stroke-width="0.630746"/>
<path d="M837.526 670.474H795.684V712.316H837.526V670.474Z" stroke="#222223" stroke-width="0.630746"/>
<path d="M879.368 670.474H837.526V712.316H879.368V670.474Z" stroke="#222223" stroke-width="0.630746"/>
<path d="M921.211 670.474H879.368V712.316H921.211V670.474Z" stroke="#222223" stroke-width="0.630746"/>
<path d="M963.053 670.474H921.211V712.316H963.053V670.474Z" stroke="#222223" stroke-width="0.630746"/>
<path d="M1004.89 670.474H963.053V712.316H1004.89V670.474Z" stroke="#222223" stroke-width="0.630746"/>
<path d="M1046.74 670.474H1004.89V712.316H1046.74V670.474Z" stroke="#222223" stroke-width="0.630746"/>
<path d="M1088.58 670.474H1046.74V712.316H1088.58V670.474Z" stroke="#222223" stroke-width="0.630746"/>
<path d="M1130.42 670.474H1088.58V712.316H1130.42V670.474Z" stroke="#222223" stroke-width="0.630746"/>
<path d="M1172.26 670.474H1130.42V712.316H1172.26V670.474Z" stroke="#222223" stroke-width="0.630746"/>
<path d="M1214.11 670.474H1172.26V712.316H1214.11V670.474Z" stroke="#222223" stroke-width="0.630746"/>
<path d="M1255.95 670.474H1214.11V712.316H1255.95V670.474Z" stroke="#222223" stroke-width="0.630746"/>
<path d="M1297.79 670.474H1255.95V712.316H1297.79V670.474Z" stroke="#222223" stroke-width="0.630746"/>
<path d="M1339.63 670.474H1297.79V712.316H1339.63V670.474Z" stroke="#222223" stroke-width="0.630746"/>
<path d="M1381.47 670.474H1339.63V712.316H1381.47V670.474Z" stroke="#222223" stroke-width="0.630746"/>
<path d="M1423.32 670.474H1381.47V712.316H1423.32V670.474Z" stroke="#222223" stroke-width="0.630746"/>
<path d="M1465.16 670.474H1423.32V712.316H1465.16V670.474Z" stroke="#222223" stroke-width="0.630746"/>
<path d="M1507 670.474H1465.16V712.316H1507V670.474Z" stroke="#222223" stroke-width="0.630746"/>
<path d="M753.842 712.316H712V754.158H753.842V712.316Z" stroke="#222223" stroke-width="0.630746"/>
<path d="M795.684 712.316H753.842V754.158H795.684V712.316Z" stroke="#222223" stroke-width="0.630746"/>
<path d="M837.526 712.316H795.684V754.158H837.526V712.316Z" stroke="#222223" stroke-width="0.630746"/>
<path d="M879.368 712.316H837.526V754.158H879.368V712.316Z" stroke="#222223" stroke-width="0.630746"/>
<path d="M921.211 712.316H879.368V754.158H921.211V712.316Z" stroke="#222223" stroke-width="0.630746"/>
<path d="M963.053 712.316H921.211V754.158H963.053V712.316Z" stroke="#222223" stroke-width="0.630746"/>
<path d="M1004.89 712.316H963.053V754.158H1004.89V712.316Z" stroke="#222223" stroke-width="0.630746"/>
<path d="M1046.74 712.316H1004.89V754.158H1046.74V712.316Z" stroke="#222223" stroke-width="0.630746"/>
<path d="M1088.58 712.316H1046.74V754.158H1088.58V712.316Z" stroke="#222223" stroke-width="0.630746"/>
<path d="M1130.42 712.316H1088.58V754.158H1130.42V712.316Z" stroke="#222223" stroke-width="0.630746"/>
<path d="M1172.26 712.316H1130.42V754.158H1172.26V712.316Z" stroke="#222223" stroke-width="0.630746"/>
<path d="M1214.11 712.316H1172.26V754.158H1214.11V712.316Z" stroke="#222223" stroke-width="0.630746"/>
<path d="M1255.95 712.316H1214.11V754.158H1255.95V712.316Z" stroke="#222223" stroke-width="0.630746"/>
<path d="M1297.79 712.316H1255.95V754.158H1297.79V712.316Z" stroke="#222223" stroke-width="0.630746"/>
<path d="M1339.63 712.316H1297.79V754.158H1339.63V712.316Z" stroke="#222223" stroke-width="0.630746"/>
<path d="M1381.47 712.316H1339.63V754.158H1381.47V712.316Z" stroke="#222223" stroke-width="0.630746"/>
<path d="M1423.32 712.316H1381.47V754.158H1423.32V712.316Z" stroke="#222223" stroke-width="0.630746"/>
<path d="M1465.16 712.316H1423.32V754.158H1465.16V712.316Z" stroke="#222223" stroke-width="0.630746"/>
<path d="M1507 712.316H1465.16V754.158H1507V712.316Z" stroke="#222223" stroke-width="0.630746"/>
<path d="M753.842 754.158H712V796H753.842V754.158Z" stroke="#222223" stroke-width="0.630746"/>
<path d="M795.684 754.158H753.842V796H795.684V754.158Z" stroke="#222223" stroke-width="0.630746"/>
<path d="M837.526 754.158H795.684V796H837.526V754.158Z" stroke="#222223" stroke-width="0.630746"/>
<path d="M879.368 754.158H837.526V796H879.368V754.158Z" stroke="#222223" stroke-width="0.630746"/>
<path d="M921.211 754.158H879.368V796H921.211V754.158Z" stroke="#222223" stroke-width="0.630746"/>
<path d="M963.053 754.158H921.211V796H963.053V754.158Z" stroke="#222223" stroke-width="0.630746"/>
<path d="M1004.89 754.158H963.053V796H1004.89V754.158Z" stroke="#222223" stroke-width="0.630746"/>
<path d="M1046.74 754.158H1004.89V796H1046.74V754.158Z" stroke="#222223" stroke-width="0.630746"/>
<path d="M1088.58 754.158H1046.74V796H1088.58V754.158Z" stroke="#222223" stroke-width="0.630746"/>
<path d="M1130.42 754.158H1088.58V796H1130.42V754.158Z" stroke="#222223" stroke-width="0.630746"/>
<path d="M1172.26 754.158H1130.42V796H1172.26V754.158Z" stroke="#222223" stroke-width="0.630746"/>
<path d="M1214.11 754.158H1172.26V796H1214.11V754.158Z" stroke="#222223" stroke-width="0.630746"/>
<path d="M1255.95 754.158H1214.11V796H1255.95V754.158Z" stroke="#222223" stroke-width="0.630746"/>
<path d="M1297.79 754.158H1255.95V796H1297.79V754.158Z" stroke="#222223" stroke-width="0.630746"/>
<path d="M1339.63 754.158H1297.79V796H1339.63V754.158Z" stroke="#222223" stroke-width="0.630746"/>
<path d="M1381.47 754.158H1339.63V796H1381.47V754.158Z" stroke="#222223" stroke-width="0.630746"/>
<path d="M1423.32 754.158H1381.47V796H1423.32V754.158Z" stroke="#222223" stroke-width="0.630746"/>
<path d="M1465.16 754.158H1423.32V796H1465.16V754.158Z" stroke="#222223" stroke-width="0.630746"/>
<path d="M1507 754.158H1465.16V796H1507V754.158Z" stroke="#222223" stroke-width="0.630746"/>
<path d="M42.8421 1H1V42.8421H42.8421V1Z" stroke="#222223" stroke-width="0.630746"/>
<path d="M84.6841 1H42.842V42.8421H84.6841V1Z" stroke="#222223" stroke-width="0.630746"/>
<path d="M126.526 1H84.6843V42.8421H126.526V1Z" stroke="#222223" stroke-width="0.630746"/>
<path d="M168.368 1H126.526V42.8421H168.368V1Z" stroke="#222223" stroke-width="0.630746"/>
<path d="M210.211 1H168.368V42.8421H210.211V1Z" stroke="#222223" stroke-width="0.630746"/>
<path d="M252.053 1H210.211V42.8421H252.053V1Z" stroke="#222223" stroke-width="0.630746"/>
<path d="M293.895 1H252.053V42.8421H293.895V1Z" stroke="#222223" stroke-width="0.630746"/>
<path d="M335.737 1H293.895V42.8421H335.737V1Z" stroke="#222223" stroke-width="0.630746"/>
<path d="M377.579 1H335.737V42.8421H377.579V1Z" stroke="#222223" stroke-width="0.630746"/>
<path d="M419.421 1H377.579V42.8421H419.421V1Z" stroke="#222223" stroke-width="0.630746"/>
<path d="M461.263 1H419.421V42.8421H461.263V1Z" stroke="#222223" stroke-width="0.630746"/>
<path d="M503.105 1H461.263V42.8421H503.105V1Z" stroke="#222223" stroke-width="0.630746"/>
<path d="M544.947 1H503.105V42.8421H544.947V1Z" stroke="#222223" stroke-width="0.630746"/>
<path d="M586.79 1H544.948V42.8421H586.79V1Z" stroke="#222223" stroke-width="0.630746"/>
<path d="M628.632 1H586.79V42.8421H628.632V1Z" stroke="#222223" stroke-width="0.630746"/>
<path d="M670.474 1H628.632V42.8421H670.474V1Z" stroke="#222223" stroke-width="0.630746"/>
<path d="M712.316 1H670.474V42.8421H712.316V1Z" stroke="#222223" stroke-width="0.630746"/>
<path d="M754.158 1H712.316V42.8421H754.158V1Z" stroke="#222223" stroke-width="0.630746"/>
<path d="M796 1H754.158V42.8421H796V1Z" stroke="#222223" stroke-width="0.630746"/>
<path d="M42.842 42.8423H0.999939V84.6844H42.842V42.8423Z" stroke="#222223" stroke-width="0.630746"/>
<path d="M84.6841 42.8423H42.842V84.6844H84.6841V42.8423Z" stroke="#222223" stroke-width="0.630746"/>
<path d="M126.526 42.8423H84.6843V84.6844H126.526V42.8423Z" stroke="#222223" stroke-width="0.630746"/>
<path d="M168.368 42.8423H126.526V84.6844H168.368V42.8423Z" stroke="#222223" stroke-width="0.630746"/>
<path d="M210.211 42.8423H168.368V84.6844H210.211V42.8423Z" stroke="#222223" stroke-width="0.630746"/>
<path d="M252.053 42.8423H210.211V84.6844H252.053V42.8423Z" stroke="#222223" stroke-width="0.630746"/>
<path d="M293.895 42.8423H252.053V84.6844H293.895V42.8423Z" stroke="#222223" stroke-width="0.630746"/>
<path d="M335.737 42.8423H293.895V84.6844H335.737V42.8423Z" stroke="#222223" stroke-width="0.630746"/>
<path d="M377.579 42.8423H335.737V84.6844H377.579V42.8423Z" stroke="#222223" stroke-width="0.630746"/>
<path d="M419.421 42.8423H377.579V84.6844H419.421V42.8423Z" stroke="#222223" stroke-width="0.630746"/>
<path d="M461.263 42.8423H419.421V84.6844H461.263V42.8423Z" stroke="#222223" stroke-width="0.630746"/>
<path d="M503.105 42.8423H461.263V84.6844H503.105V42.8423Z" stroke="#222223" stroke-width="0.630746"/>
<path d="M544.947 42.8423H503.105V84.6844H544.947V42.8423Z" stroke="#222223" stroke-width="0.630746"/>
<path d="M586.79 42.8423H544.948V84.6844H586.79V42.8423Z" stroke="#222223" stroke-width="0.630746"/>
<path d="M628.632 42.8423H586.79V84.6844H628.632V42.8423Z" stroke="#222223" stroke-width="0.630746"/>
<path d="M670.474 42.8423H628.632V84.6844H670.474V42.8423Z" stroke="#222223" stroke-width="0.630746"/>
<path d="M712.316 42.8423H670.474V84.6844H712.316V42.8423Z" stroke="#222223" stroke-width="0.630746"/>
<path d="M754.158 42.8423H712.316V84.6844H754.158V42.8423Z" stroke="#222223" stroke-width="0.630746"/>
<path d="M796 42.8423H754.158V84.6844H796V42.8423Z" stroke="#222223" stroke-width="0.630746"/>
<path d="M42.842 84.6843H0.999939V126.526H42.842V84.6843Z" stroke="#222223" stroke-width="0.630746"/>
<path d="M84.6841 84.6843H42.842V126.526H84.6841V84.6843Z" stroke="#222223" stroke-width="0.630746"/>
<path d="M126.526 84.6843H84.6843V126.526H126.526V84.6843Z" stroke="#222223" stroke-width="0.630746"/>
<path d="M168.368 84.6843H126.526V126.526H168.368V84.6843Z" stroke="#222223" stroke-width="0.630746"/>
<path d="M210.211 84.6843H168.368V126.526H210.211V84.6843Z" stroke="#222223" stroke-width="0.630746"/>
<path d="M252.053 84.6843H210.211V126.526H252.053V84.6843Z" stroke="#222223" stroke-width="0.630746"/>
<path d="M293.895 84.6843H252.053V126.526H293.895V84.6843Z" stroke="#222223" stroke-width="0.630746"/>
<path d="M335.737 84.6843H293.895V126.526H335.737V84.6843Z" stroke="#222223" stroke-width="0.630746"/>
<path d="M377.579 84.6843H335.737V126.526H377.579V84.6843Z" stroke="#222223" stroke-width="0.630746"/>
<path d="M419.421 84.6843H377.579V126.526H419.421V84.6843Z" stroke="#222223" stroke-width="0.630746"/>
<path d="M461.263 84.6843H419.421V126.526H461.263V84.6843Z" stroke="#222223" stroke-width="0.630746"/>
<path d="M503.105 84.6843H461.263V126.526H503.105V84.6843Z" stroke="#222223" stroke-width="0.630746"/>
<path d="M544.947 84.6843H503.105V126.526H544.947V84.6843Z" stroke="#222223" stroke-width="0.630746"/>
<path d="M586.79 84.6843H544.948V126.526H586.79V84.6843Z" stroke="#222223" stroke-width="0.630746"/>
<path d="M628.632 84.6843H586.79V126.526H628.632V84.6843Z" stroke="#222223" stroke-width="0.630746"/>
<path d="M670.474 84.6843H628.632V126.526H670.474V84.6843Z" stroke="#222223" stroke-width="0.630746"/>
<path d="M712.316 84.6843H670.474V126.526H712.316V84.6843Z" stroke="#222223" stroke-width="0.630746"/>
<path d="M754.158 84.6843H712.316V126.526H754.158V84.6843Z" stroke="#222223" stroke-width="0.630746"/>
<path d="M796 84.6843H754.158V126.526H796V84.6843Z" stroke="#222223" stroke-width="0.630746"/>
<path d="M42.842 126.526H0.999939V168.368H42.842V126.526Z" stroke="#222223" stroke-width="0.630746"/>
<path d="M84.6841 126.526H42.842V168.368H84.6841V126.526Z" stroke="#222223" stroke-width="0.630746"/>
<path d="M126.526 126.526H84.6843V168.368H126.526V126.526Z" stroke="#222223" stroke-width="0.630746"/>
<path d="M168.368 126.526H126.526V168.368H168.368V126.526Z" stroke="#222223" stroke-width="0.630746"/>
<path d="M210.211 126.526H168.368V168.368H210.211V126.526Z" stroke="#222223" stroke-width="0.630746"/>
<path d="M252.053 126.526H210.211V168.368H252.053V126.526Z" stroke="#222223" stroke-width="0.630746"/>
<path d="M293.895 126.526H252.053V168.368H293.895V126.526Z" stroke="#222223" stroke-width="0.630746"/>
<path d="M335.737 126.526H293.895V168.368H335.737V126.526Z" stroke="#222223" stroke-width="0.630746"/>
<path d="M377.579 126.526H335.737V168.368H377.579V126.526Z" stroke="#222223" stroke-width="0.630746"/>
<path d="M419.421 126.526H377.579V168.368H419.421V126.526Z" stroke="#222223" stroke-width="0.630746"/>
<path d="M461.263 126.526H419.421V168.368H461.263V126.526Z" stroke="#222223" stroke-width="0.630746"/>
<path d="M503.105 126.526H461.263V168.368H503.105V126.526Z" stroke="#222223" stroke-width="0.630746"/>
<path d="M544.947 126.526H503.105V168.368H544.947V126.526Z" stroke="#222223" stroke-width="0.630746"/>
<path d="M586.79 126.526H544.948V168.368H586.79V126.526Z" stroke="#222223" stroke-width="0.630746"/>
<path d="M628.632 126.526H586.79V168.368H628.632V126.526Z" stroke="#222223" stroke-width="0.630746"/>
<path d="M670.474 126.526H628.632V168.368H670.474V126.526Z" stroke="#222223" stroke-width="0.630746"/>
<path d="M712.316 126.526H670.474V168.368H712.316V126.526Z" stroke="#222223" stroke-width="0.630746"/>
<path d="M754.158 126.526H712.316V168.368H754.158V126.526Z" stroke="#222223" stroke-width="0.630746"/>
<path d="M796 126.526H754.158V168.368H796V126.526Z" stroke="#222223" stroke-width="0.630746"/>
<path d="M42.842 168.369H0.999939V210.211H42.842V168.369Z" stroke="#222223" stroke-width="0.630746"/>
<path d="M84.6841 168.369H42.842V210.211H84.6841V168.369Z" stroke="#222223" stroke-width="0.630746"/>
<path d="M126.526 168.369H84.6843V210.211H126.526V168.369Z" stroke="#222223" stroke-width="0.630746"/>
<path d="M168.368 168.369H126.526V210.211H168.368V168.369Z" stroke="#222223" stroke-width="0.630746"/>
<path d="M210.211 168.369H168.368V210.211H210.211V168.369Z" stroke="#222223" stroke-width="0.630746"/>
<path d="M252.053 168.369H210.211V210.211H252.053V168.369Z" stroke="#222223" stroke-width="0.630746"/>
<path d="M293.895 168.369H252.053V210.211H293.895V168.369Z" stroke="#222223" stroke-width="0.630746"/>
<path d="M335.737 168.369H293.895V210.211H335.737V168.369Z" stroke="#222223" stroke-width="0.630746"/>
<path d="M377.579 168.369H335.737V210.211H377.579V168.369Z" stroke="#222223" stroke-width="0.630746"/>
<path d="M419.421 168.369H377.579V210.211H419.421V168.369Z" stroke="#222223" stroke-width="0.630746"/>
<path d="M461.263 168.369H419.421V210.211H461.263V168.369Z" stroke="#222223" stroke-width="0.630746"/>
<path d="M503.105 168.369H461.263V210.211H503.105V168.369Z" stroke="#222223" stroke-width="0.630746"/>
<path d="M544.947 168.369H503.105V210.211H544.947V168.369Z" stroke="#222223" stroke-width="0.630746"/>
<path d="M586.79 168.369H544.948V210.211H586.79V168.369Z" stroke="#222223" stroke-width="0.630746"/>
<path d="M628.632 168.369H586.79V210.211H628.632V168.369Z" stroke="#222223" stroke-width="0.630746"/>
<path d="M670.474 168.369H628.632V210.211H670.474V168.369Z" stroke="#222223" stroke-width="0.630746"/>
<path d="M712.316 168.369H670.474V210.211H712.316V168.369Z" stroke="#222223" stroke-width="0.630746"/>
<path d="M754.158 168.369H712.316V210.211H754.158V168.369Z" stroke="#222223" stroke-width="0.630746"/>
<path d="M796 168.369H754.158V210.211H796V168.369Z" stroke="#222223" stroke-width="0.630746"/>
<path d="M42.842 210.211H0.999939V252.053H42.842V210.211Z" stroke="#222223" stroke-width="0.630746"/>
<path d="M84.6841 210.211H42.842V252.053H84.6841V210.211Z" stroke="#222223" stroke-width="0.630746"/>
<path d="M126.526 210.211H84.6843V252.053H126.526V210.211Z" stroke="#222223" stroke-width="0.630746"/>
<path d="M168.368 210.211H126.526V252.053H168.368V210.211Z" stroke="#222223" stroke-width="0.630746"/>
<path d="M210.211 210.211H168.368V252.053H210.211V210.211Z" stroke="#222223" stroke-width="0.630746"/>
<path d="M252.053 210.211H210.211V252.053H252.053V210.211Z" stroke="#222223" stroke-width="0.630746"/>
<path d="M293.895 210.211H252.053V252.053H293.895V210.211Z" stroke="#222223" stroke-width="0.630746"/>
<path d="M335.737 210.211H293.895V252.053H335.737V210.211Z" stroke="#222223" stroke-width="0.630746"/>
<path d="M377.579 210.211H335.737V252.053H377.579V210.211Z" stroke="#222223" stroke-width="0.630746"/>
<path d="M419.421 210.211H377.579V252.053H419.421V210.211Z" stroke="#222223" stroke-width="0.630746"/>
<path d="M461.263 210.211H419.421V252.053H461.263V210.211Z" stroke="#222223" stroke-width="0.630746"/>
<path d="M503.105 210.211H461.263V252.053H503.105V210.211Z" stroke="#222223" stroke-width="0.630746"/>
<path d="M544.947 210.211H503.105V252.053H544.947V210.211Z" stroke="#222223" stroke-width="0.630746"/>
<path d="M586.79 210.211H544.948V252.053H586.79V210.211Z" stroke="#222223" stroke-width="0.630746"/>
<path d="M628.632 210.211H586.79V252.053H628.632V210.211Z" stroke="#222223" stroke-width="0.630746"/>
<path d="M670.474 210.211H628.632V252.053H670.474V210.211Z" stroke="#222223" stroke-width="0.630746"/>
<path d="M712.316 210.211H670.474V252.053H712.316V210.211Z" stroke="#222223" stroke-width="0.630746"/>
<path d="M754.158 210.211H712.316V252.053H754.158V210.211Z" stroke="#222223" stroke-width="0.630746"/>
<path d="M796 210.211H754.158V252.053H796V210.211Z" stroke="#222223" stroke-width="0.630746"/>
<path d="M42.842 252.053H0.999939V293.895H42.842V252.053Z" stroke="#222223" stroke-width="0.630746"/>
<path d="M84.6841 252.053H42.842V293.895H84.6841V252.053Z" stroke="#222223" stroke-width="0.630746"/>
<path d="M126.526 252.053H84.6843V293.895H126.526V252.053Z" stroke="#222223" stroke-width="0.630746"/>
<path d="M168.368 252.053H126.526V293.895H168.368V252.053Z" stroke="#222223" stroke-width="0.630746"/>
<path d="M210.211 252.053H168.368V293.895H210.211V252.053Z" stroke="#222223" stroke-width="0.630746"/>
<path d="M252.053 252.053H210.211V293.895H252.053V252.053Z" stroke="#222223" stroke-width="0.630746"/>
<path d="M293.895 252.053H252.053V293.895H293.895V252.053Z" stroke="#222223" stroke-width="0.630746"/>
<path d="M335.737 252.053H293.895V293.895H335.737V252.053Z" stroke="#222223" stroke-width="0.630746"/>
<path d="M377.579 252.053H335.737V293.895H377.579V252.053Z" stroke="#222223" stroke-width="0.630746"/>
<path d="M419.421 252.053H377.579V293.895H419.421V252.053Z" stroke="#222223" stroke-width="0.630746"/>
<path d="M461.263 252.053H419.421V293.895H461.263V252.053Z" stroke="#222223" stroke-width="0.630746"/>
<path d="M503.105 252.053H461.263V293.895H503.105V252.053Z" stroke="#222223" stroke-width="0.630746"/>
<path d="M544.947 252.053H503.105V293.895H544.947V252.053Z" stroke="#222223" stroke-width="0.630746"/>
<path d="M586.79 252.053H544.948V293.895H586.79V252.053Z" stroke="#222223" stroke-width="0.630746"/>
<path d="M628.632 252.053H586.79V293.895H628.632V252.053Z" stroke="#222223" stroke-width="0.630746"/>
<path d="M670.474 252.053H628.632V293.895H670.474V252.053Z" stroke="#222223" stroke-width="0.630746"/>
<path d="M712.316 252.053H670.474V293.895H712.316V252.053Z" stroke="#222223" stroke-width="0.630746"/>
<path d="M754.158 252.053H712.316V293.895H754.158V252.053Z" stroke="#222223" stroke-width="0.630746"/>
<path d="M796 252.053H754.158V293.895H796V252.053Z" stroke="#222223" stroke-width="0.630746"/>
<path d="M42.842 293.895H0.999939V335.737H42.842V293.895Z" stroke="#222223" stroke-width="0.630746"/>
<path d="M84.6841 293.895H42.842V335.737H84.6841V293.895Z" stroke="#222223" stroke-width="0.630746"/>
<path d="M126.526 293.895H84.6843V335.737H126.526V293.895Z" stroke="#222223" stroke-width="0.630746"/>
<path d="M168.368 293.895H126.526V335.737H168.368V293.895Z" stroke="#222223" stroke-width="0.630746"/>
<path d="M210.211 293.895H168.368V335.737H210.211V293.895Z" stroke="#222223" stroke-width="0.630746"/>
<path d="M252.053 293.895H210.211V335.737H252.053V293.895Z" stroke="#222223" stroke-width="0.630746"/>
<path d="M293.895 293.895H252.053V335.737H293.895V293.895Z" stroke="#222223" stroke-width="0.630746"/>
<path d="M335.737 293.895H293.895V335.737H335.737V293.895Z" stroke="#222223" stroke-width="0.630746"/>
<path d="M377.579 293.895H335.737V335.737H377.579V293.895Z" stroke="#222223" stroke-width="0.630746"/>
<path d="M419.421 293.895H377.579V335.737H419.421V293.895Z" stroke="#222223" stroke-width="0.630746"/>
<path d="M461.263 293.895H419.421V335.737H461.263V293.895Z" stroke="#222223" stroke-width="0.630746"/>
<path d="M503.105 293.895H461.263V335.737H503.105V293.895Z" stroke="#222223" stroke-width="0.630746"/>
<path d="M544.947 293.895H503.105V335.737H544.947V293.895Z" stroke="#222223" stroke-width="0.630746"/>
<path d="M586.79 293.895H544.948V335.737H586.79V293.895Z" stroke="#222223" stroke-width="0.630746"/>
<path d="M628.632 293.895H586.79V335.737H628.632V293.895Z" stroke="#222223" stroke-width="0.630746"/>
<path d="M670.474 293.895H628.632V335.737H670.474V293.895Z" stroke="#222223" stroke-width="0.630746"/>
<path d="M712.316 293.895H670.474V335.737H712.316V293.895Z" stroke="#222223" stroke-width="0.630746"/>
<path d="M754.158 293.895H712.316V335.737H754.158V293.895Z" stroke="#222223" stroke-width="0.630746"/>
<path d="M796 293.895H754.158V335.737H796V293.895Z" stroke="#222223" stroke-width="0.630746"/>
<path d="M42.842 335.737H0.999939V377.579H42.842V335.737Z" stroke="#222223" stroke-width="0.630746"/>
<path d="M84.6841 335.737H42.842V377.579H84.6841V335.737Z" stroke="#222223" stroke-width="0.630746"/>
<path d="M126.526 335.737H84.6843V377.579H126.526V335.737Z" stroke="#222223" stroke-width="0.630746"/>
<path d="M168.368 335.737H126.526V377.579H168.368V335.737Z" stroke="#222223" stroke-width="0.630746"/>
<path d="M210.211 335.737H168.368V377.579H210.211V335.737Z" stroke="#222223" stroke-width="0.630746"/>
<path d="M252.053 335.737H210.211V377.579H252.053V335.737Z" stroke="#222223" stroke-width="0.630746"/>
<path d="M293.895 335.737H252.053V377.579H293.895V335.737Z" stroke="#222223" stroke-width="0.630746"/>
<path d="M335.737 335.737H293.895V377.579H335.737V335.737Z" stroke="#222223" stroke-width="0.630746"/>
<path d="M377.579 335.737H335.737V377.579H377.579V335.737Z" stroke="#222223" stroke-width="0.630746"/>
<path d="M419.421 335.737H377.579V377.579H419.421V335.737Z" stroke="#222223" stroke-width="0.630746"/>
<path d="M461.263 335.737H419.421V377.579H461.263V335.737Z" stroke="#222223" stroke-width="0.630746"/>
<path d="M503.105 335.737H461.263V377.579H503.105V335.737Z" stroke="#222223" stroke-width="0.630746"/>
<path d="M544.947 335.737H503.105V377.579H544.947V335.737Z" stroke="#222223" stroke-width="0.630746"/>
<path d="M586.79 335.737H544.948V377.579H586.79V335.737Z" stroke="#222223" stroke-width="0.630746"/>
<path d="M628.632 335.737H586.79V377.579H628.632V335.737Z" stroke="#222223" stroke-width="0.630746"/>
<path d="M670.474 335.737H628.632V377.579H670.474V335.737Z" stroke="#222223" stroke-width="0.630746"/>
<path d="M712.316 335.737H670.474V377.579H712.316V335.737Z" stroke="#222223" stroke-width="0.630746"/>
<path d="M754.158 335.737H712.316V377.579H754.158V335.737Z" stroke="#222223" stroke-width="0.630746"/>
<path d="M796 335.737H754.158V377.579H796V335.737Z" stroke="#222223" stroke-width="0.630746"/>
<path d="M42.842 377.579H0.999939V419.421H42.842V377.579Z" stroke="#222223" stroke-width="0.630746"/>
<path d="M84.6841 377.579H42.842V419.421H84.6841V377.579Z" stroke="#222223" stroke-width="0.630746"/>
<path d="M126.526 377.579H84.6843V419.421H126.526V377.579Z" stroke="#222223" stroke-width="0.630746"/>
<path d="M168.368 377.579H126.526V419.421H168.368V377.579Z" stroke="#222223" stroke-width="0.630746"/>
<path d="M210.211 377.579H168.368V419.421H210.211V377.579Z" stroke="#222223" stroke-width="0.630746"/>
<path d="M252.053 377.579H210.211V419.421H252.053V377.579Z" stroke="#222223" stroke-width="0.630746"/>
<path d="M293.895 377.579H252.053V419.421H293.895V377.579Z" stroke="#222223" stroke-width="0.630746"/>
<path d="M335.737 377.579H293.895V419.421H335.737V377.579Z" stroke="#222223" stroke-width="0.630746"/>
<path d="M377.579 377.579H335.737V419.421H377.579V377.579Z" stroke="#222223" stroke-width="0.630746"/>
<path d="M419.421 377.579H377.579V419.421H419.421V377.579Z" stroke="#222223" stroke-width="0.630746"/>
<path d="M461.263 377.579H419.421V419.421H461.263V377.579Z" stroke="#222223" stroke-width="0.630746"/>
<path d="M503.105 377.579H461.263V419.421H503.105V377.579Z" stroke="#222223" stroke-width="0.630746"/>
<path d="M544.947 377.579H503.105V419.421H544.947V377.579Z" stroke="#222223" stroke-width="0.630746"/>
<path d="M586.79 377.579H544.948V419.421H586.79V377.579Z" stroke="#222223" stroke-width="0.630746"/>
<path d="M628.632 377.579H586.79V419.421H628.632V377.579Z" stroke="#222223" stroke-width="0.630746"/>
<path d="M670.474 377.579H628.632V419.421H670.474V377.579Z" stroke="#222223" stroke-width="0.630746"/>
<path d="M712.316 377.579H670.474V419.421H712.316V377.579Z" stroke="#222223" stroke-width="0.630746"/>
<path d="M754.158 377.579H712.316V419.421H754.158V377.579Z" stroke="#222223" stroke-width="0.630746"/>
<path d="M796 377.579H754.158V419.421H796V377.579Z" stroke="#222223" stroke-width="0.630746"/>
<path d="M42.842 419.421H0.999939V461.263H42.842V419.421Z" stroke="#222223" stroke-width="0.630746"/>
<path d="M84.6841 419.421H42.842V461.263H84.6841V419.421Z" stroke="#222223" stroke-width="0.630746"/>
<path d="M126.526 419.421H84.6843V461.263H126.526V419.421Z" stroke="#222223" stroke-width="0.630746"/>
<path d="M168.368 419.421H126.526V461.263H168.368V419.421Z" stroke="#222223" stroke-width="0.630746"/>
<path d="M210.211 419.421H168.368V461.263H210.211V419.421Z" stroke="#222223" stroke-width="0.630746"/>
<path d="M252.053 419.421H210.211V461.263H252.053V419.421Z" stroke="#222223" stroke-width="0.630746"/>
<path d="M293.895 419.421H252.053V461.263H293.895V419.421Z" stroke="#222223" stroke-width="0.630746"/>
<path d="M335.737 419.421H293.895V461.263H335.737V419.421Z" stroke="#222223" stroke-width="0.630746"/>
<path d="M377.579 419.421H335.737V461.263H377.579V419.421Z" stroke="#222223" stroke-width="0.630746"/>
<path d="M419.421 419.421H377.579V461.263H419.421V419.421Z" stroke="#222223" stroke-width="0.630746"/>
<path d="M461.263 419.421H419.421V461.263H461.263V419.421Z" stroke="#222223" stroke-width="0.630746"/>
<path d="M503.105 419.421H461.263V461.263H503.105V419.421Z" stroke="#222223" stroke-width="0.630746"/>
<path d="M544.947 419.421H503.105V461.263H544.947V419.421Z" stroke="#222223" stroke-width="0.630746"/>
<path d="M586.79 419.421H544.948V461.263H586.79V419.421Z" stroke="#222223" stroke-width="0.630746"/>
<path d="M628.632 419.421H586.79V461.263H628.632V419.421Z" stroke="#222223" stroke-width="0.630746"/>
<path d="M670.474 419.421H628.632V461.263H670.474V419.421Z" stroke="#222223" stroke-width="0.630746"/>
<path d="M712.316 419.421H670.474V461.263H712.316V419.421Z" stroke="#222223" stroke-width="0.630746"/>
<path d="M754.158 419.421H712.316V461.263H754.158V419.421Z" stroke="#222223" stroke-width="0.630746"/>
<path d="M796 419.421H754.158V461.263H796V419.421Z" stroke="#222223" stroke-width="0.630746"/>
<path d="M42.842 461.263H0.999939V503.105H42.842V461.263Z" stroke="#222223" stroke-width="0.630746"/>
<path d="M84.6841 461.263H42.842V503.105H84.6841V461.263Z" stroke="#222223" stroke-width="0.630746"/>
<path d="M126.526 461.263H84.6843V503.105H126.526V461.263Z" stroke="#222223" stroke-width="0.630746"/>
<path d="M168.368 461.263H126.526V503.105H168.368V461.263Z" stroke="#222223" stroke-width="0.630746"/>
<path d="M210.211 461.263H168.368V503.105H210.211V461.263Z" stroke="#222223" stroke-width="0.630746"/>
<path d="M252.053 461.263H210.211V503.105H252.053V461.263Z" stroke="#222223" stroke-width="0.630746"/>
<path d="M293.895 461.263H252.053V503.105H293.895V461.263Z" stroke="#222223" stroke-width="0.630746"/>
<path d="M335.737 461.263H293.895V503.105H335.737V461.263Z" stroke="#222223" stroke-width="0.630746"/>
<path d="M377.579 461.263H335.737V503.105H377.579V461.263Z" stroke="#222223" stroke-width="0.630746"/>
<path d="M419.421 461.263H377.579V503.105H419.421V461.263Z" stroke="#222223" stroke-width="0.630746"/>
<path d="M461.263 461.263H419.421V503.105H461.263V461.263Z" stroke="#222223" stroke-width="0.630746"/>
<path d="M503.105 461.263H461.263V503.105H503.105V461.263Z" stroke="#222223" stroke-width="0.630746"/>
<path d="M544.947 461.263H503.105V503.105H544.947V461.263Z" stroke="#222223" stroke-width="0.630746"/>
<path d="M586.79 461.263H544.948V503.105H586.79V461.263Z" stroke="#222223" stroke-width="0.630746"/>
<path d="M628.632 461.263H586.79V503.105H628.632V461.263Z" stroke="#222223" stroke-width="0.630746"/>
<path d="M670.474 461.263H628.632V503.105H670.474V461.263Z" stroke="#222223" stroke-width="0.630746"/>
<path d="M712.316 461.263H670.474V503.105H712.316V461.263Z" stroke="#222223" stroke-width="0.630746"/>
<path d="M754.158 461.263H712.316V503.105H754.158V461.263Z" stroke="#222223" stroke-width="0.630746"/>
<path d="M796 461.263H754.158V503.105H796V461.263Z" stroke="#222223" stroke-width="0.630746"/>
<path d="M42.842 503.105H0.999939V544.947H42.842V503.105Z" stroke="#222223" stroke-width="0.630746"/>
<path d="M84.6841 503.105H42.842V544.947H84.6841V503.105Z" stroke="#222223" stroke-width="0.630746"/>
<path d="M126.526 503.105H84.6843V544.947H126.526V503.105Z" stroke="#222223" stroke-width="0.630746"/>
<path d="M168.368 503.105H126.526V544.947H168.368V503.105Z" stroke="#222223" stroke-width="0.630746"/>
<path d="M210.211 503.105H168.368V544.947H210.211V503.105Z" stroke="#222223" stroke-width="0.630746"/>
<path d="M252.053 503.105H210.211V544.947H252.053V503.105Z" stroke="#222223" stroke-width="0.630746"/>
<path d="M293.895 503.105H252.053V544.947H293.895V503.105Z" stroke="#222223" stroke-width="0.630746"/>
<path d="M335.737 503.105H293.895V544.947H335.737V503.105Z" stroke="#222223" stroke-width="0.630746"/>
<path d="M377.579 503.105H335.737V544.947H377.579V503.105Z" stroke="#222223" stroke-width="0.630746"/>
<path d="M419.421 503.105H377.579V544.947H419.421V503.105Z" stroke="#222223" stroke-width="0.630746"/>
<path d="M461.263 503.105H419.421V544.947H461.263V503.105Z" stroke="#222223" stroke-width="0.630746"/>
<path d="M503.105 503.105H461.263V544.947H503.105V503.105Z" stroke="#222223" stroke-width="0.630746"/>
<path d="M544.947 503.105H503.105V544.947H544.947V503.105Z" stroke="#222223" stroke-width="0.630746"/>
<path d="M586.79 503.105H544.948V544.947H586.79V503.105Z" stroke="#222223" stroke-width="0.630746"/>
<path d="M628.632 503.105H586.79V544.947H628.632V503.105Z" stroke="#222223" stroke-width="0.630746"/>
<path d="M670.474 503.105H628.632V544.947H670.474V503.105Z" stroke="#222223" stroke-width="0.630746"/>
<path d="M712.316 503.105H670.474V544.947H712.316V503.105Z" stroke="#222223" stroke-width="0.630746"/>
<path d="M754.158 503.105H712.316V544.947H754.158V503.105Z" stroke="#222223" stroke-width="0.630746"/>
<path d="M796 503.105H754.158V544.947H796V503.105Z" stroke="#222223" stroke-width="0.630746"/>
<path d="M42.842 544.948H0.999939V586.79H42.842V544.948Z" stroke="#222223" stroke-width="0.630746"/>
<path d="M84.6841 544.948H42.842V586.79H84.6841V544.948Z" stroke="#222223" stroke-width="0.630746"/>
<path d="M126.526 544.948H84.6843V586.79H126.526V544.948Z" stroke="#222223" stroke-width="0.630746"/>
<path d="M168.368 544.948H126.526V586.79H168.368V544.948Z" stroke="#222223" stroke-width="0.630746"/>
<path d="M210.211 544.948H168.368V586.79H210.211V544.948Z" stroke="#222223" stroke-width="0.630746"/>
<path d="M252.053 544.948H210.211V586.79H252.053V544.948Z" stroke="#222223" stroke-width="0.630746"/>
<path d="M293.895 544.948H252.053V586.79H293.895V544.948Z" stroke="#222223" stroke-width="0.630746"/>
<path d="M335.737 544.948H293.895V586.79H335.737V544.948Z" stroke="#222223" stroke-width="0.630746"/>
<path d="M377.579 544.948H335.737V586.79H377.579V544.948Z" stroke="#222223" stroke-width="0.630746"/>
<path d="M419.421 544.948H377.579V586.79H419.421V544.948Z" stroke="#222223" stroke-width="0.630746"/>
<path d="M461.263 544.948H419.421V586.79H461.263V544.948Z" stroke="#222223" stroke-width="0.630746"/>
<path d="M503.105 544.948H461.263V586.79H503.105V544.948Z" stroke="#222223" stroke-width="0.630746"/>
<path d="M544.947 544.948H503.105V586.79H544.947V544.948Z" stroke="#222223" stroke-width="0.630746"/>
<path d="M586.79 544.948H544.948V586.79H586.79V544.948Z" stroke="#222223" stroke-width="0.630746"/>
<path d="M628.632 544.948H586.79V586.79H628.632V544.948Z" stroke="#222223" stroke-width="0.630746"/>
<path d="M670.474 544.948H628.632V586.79H670.474V544.948Z" stroke="#222223" stroke-width="0.630746"/>
<path d="M712.316 544.948H670.474V586.79H712.316V544.948Z" stroke="#222223" stroke-width="0.630746"/>
<path d="M754.158 544.948H712.316V586.79H754.158V544.948Z" stroke="#222223" stroke-width="0.630746"/>
<path d="M796 544.948H754.158V586.79H796V544.948Z" stroke="#222223" stroke-width="0.630746"/>
<path d="M42.842 586.79H0.999939V628.632H42.842V586.79Z" stroke="#222223" stroke-width="0.630746"/>
<path d="M84.6841 586.79H42.842V628.632H84.6841V586.79Z" stroke="#222223" stroke-width="0.630746"/>
<path d="M126.526 586.79H84.6843V628.632H126.526V586.79Z" stroke="#222223" stroke-width="0.630746"/>
<path d="M168.368 586.79H126.526V628.632H168.368V586.79Z" stroke="#222223" stroke-width="0.630746"/>
<path d="M210.211 586.79H168.368V628.632H210.211V586.79Z" stroke="#222223" stroke-width="0.630746"/>
<path d="M252.053 586.79H210.211V628.632H252.053V586.79Z" stroke="#222223" stroke-width="0.630746"/>
<path d="M293.895 586.79H252.053V628.632H293.895V586.79Z" stroke="#222223" stroke-width="0.630746"/>
<path d="M335.737 586.79H293.895V628.632H335.737V586.79Z" stroke="#222223" stroke-width="0.630746"/>
<path d="M377.579 586.79H335.737V628.632H377.579V586.79Z" stroke="#222223" stroke-width="0.630746"/>
<path d="M419.421 586.79H377.579V628.632H419.421V586.79Z" stroke="#222223" stroke-width="0.630746"/>
<path d="M461.263 586.79H419.421V628.632H461.263V586.79Z" stroke="#222223" stroke-width="0.630746"/>
<path d="M503.105 586.79H461.263V628.632H503.105V586.79Z" stroke="#222223" stroke-width="0.630746"/>
<path d="M544.947 586.79H503.105V628.632H544.947V586.79Z" stroke="#222223" stroke-width="0.630746"/>
<path d="M586.79 586.79H544.948V628.632H586.79V586.79Z" stroke="#222223" stroke-width="0.630746"/>
<path d="M628.632 586.79H586.79V628.632H628.632V586.79Z" stroke="#222223" stroke-width="0.630746"/>
<path d="M670.474 586.79H628.632V628.632H670.474V586.79Z" stroke="#222223" stroke-width="0.630746"/>
<path d="M712.316 586.79H670.474V628.632H712.316V586.79Z" stroke="#222223" stroke-width="0.630746"/>
<path d="M754.158 586.79H712.316V628.632H754.158V586.79Z" stroke="#222223" stroke-width="0.630746"/>
<path d="M796 586.79H754.158V628.632H796V586.79Z" stroke="#222223" stroke-width="0.630746"/>
<path d="M42.842 628.632H0.999939V670.474H42.842V628.632Z" stroke="#222223" stroke-width="0.630746"/>
<path d="M84.6841 628.632H42.842V670.474H84.6841V628.632Z" stroke="#222223" stroke-width="0.630746"/>
<path d="M126.526 628.632H84.6843V670.474H126.526V628.632Z" stroke="#222223" stroke-width="0.630746"/>
<path d="M168.368 628.632H126.526V670.474H168.368V628.632Z" stroke="#222223" stroke-width="0.630746"/>
<path d="M210.211 628.632H168.368V670.474H210.211V628.632Z" stroke="#222223" stroke-width="0.630746"/>
<path d="M252.053 628.632H210.211V670.474H252.053V628.632Z" stroke="#222223" stroke-width="0.630746"/>
<path d="M293.895 628.632H252.053V670.474H293.895V628.632Z" stroke="#222223" stroke-width="0.630746"/>
<path d="M335.737 628.632H293.895V670.474H335.737V628.632Z" stroke="#222223" stroke-width="0.630746"/>
<path d="M377.579 628.632H335.737V670.474H377.579V628.632Z" stroke="#222223" stroke-width="0.630746"/>
<path d="M419.421 628.632H377.579V670.474H419.421V628.632Z" stroke="#222223" stroke-width="0.630746"/>
<path d="M461.263 628.632H419.421V670.474H461.263V628.632Z" stroke="#222223" stroke-width="0.630746"/>
<path d="M503.105 628.632H461.263V670.474H503.105V628.632Z" stroke="#222223" stroke-width="0.630746"/>
<path d="M544.947 628.632H503.105V670.474H544.947V628.632Z" stroke="#222223" stroke-width="0.630746"/>
<path d="M586.79 628.632H544.948V670.474H586.79V628.632Z" stroke="#222223" stroke-width="0.630746"/>
<path d="M628.632 628.632H586.79V670.474H628.632V628.632Z" stroke="#222223" stroke-width="0.630746"/>
<path d="M670.474 628.632H628.632V670.474H670.474V628.632Z" stroke="#222223" stroke-width="0.630746"/>
<path d="M712.316 628.632H670.474V670.474H712.316V628.632Z" stroke="#222223" stroke-width="0.630746"/>
<path d="M754.158 628.632H712.316V670.474H754.158V628.632Z" stroke="#222223" stroke-width="0.630746"/>
<path d="M796 628.632H754.158V670.474H796V628.632Z" stroke="#222223" stroke-width="0.630746"/>
<path d="M42.842 670.474H0.999939V712.316H42.842V670.474Z" stroke="#222223" stroke-width="0.630746"/>
<path d="M84.6841 670.474H42.842V712.316H84.6841V670.474Z" stroke="#222223" stroke-width="0.630746"/>
<path d="M126.526 670.474H84.6843V712.316H126.526V670.474Z" stroke="#222223" stroke-width="0.630746"/>
<path d="M168.368 670.474H126.526V712.316H168.368V670.474Z" stroke="#222223" stroke-width="0.630746"/>
<path d="M210.211 670.474H168.368V712.316H210.211V670.474Z" stroke="#222223" stroke-width="0.630746"/>
<path d="M252.053 670.474H210.211V712.316H252.053V670.474Z" stroke="#222223" stroke-width="0.630746"/>
<path d="M293.895 670.474H252.053V712.316H293.895V670.474Z" stroke="#222223" stroke-width="0.630746"/>
<path d="M335.737 670.474H293.895V712.316H335.737V670.474Z" stroke="#222223" stroke-width="0.630746"/>
<path d="M377.579 670.474H335.737V712.316H377.579V670.474Z" stroke="#222223" stroke-width="0.630746"/>
<path d="M419.421 670.474H377.579V712.316H419.421V670.474Z" stroke="#222223" stroke-width="0.630746"/>
<path d="M461.263 670.474H419.421V712.316H461.263V670.474Z" stroke="#222223" stroke-width="0.630746"/>
<path d="M503.105 670.474H461.263V712.316H503.105V670.474Z" stroke="#222223" stroke-width="0.630746"/>
<path d="M544.947 670.474H503.105V712.316H544.947V670.474Z" stroke="#222223" stroke-width="0.630746"/>
<path d="M586.79 670.474H544.948V712.316H586.79V670.474Z" stroke="#222223" stroke-width="0.630746"/>
<path d="M628.632 670.474H586.79V712.316H628.632V670.474Z" stroke="#222223" stroke-width="0.630746"/>
<path d="M670.474 670.474H628.632V712.316H670.474V670.474Z" stroke="#222223" stroke-width="0.630746"/>
<path d="M712.316 670.474H670.474V712.316H712.316V670.474Z" stroke="#222223" stroke-width="0.630746"/>
<path d="M754.158 670.474H712.316V712.316H754.158V670.474Z" stroke="#222223" stroke-width="0.630746"/>
<path d="M796 670.474H754.158V712.316H796V670.474Z" stroke="#222223" stroke-width="0.630746"/>
<path d="M42.842 712.316H0.999939V754.158H42.842V712.316Z" stroke="#222223" stroke-width="0.630746"/>
<path d="M84.6841 712.316H42.842V754.158H84.6841V712.316Z" stroke="#222223" stroke-width="0.630746"/>
<path d="M126.526 712.316H84.6843V754.158H126.526V712.316Z" stroke="#222223" stroke-width="0.630746"/>
<path d="M168.368 712.316H126.526V754.158H168.368V712.316Z" stroke="#222223" stroke-width="0.630746"/>
<path d="M210.211 712.316H168.368V754.158H210.211V712.316Z" stroke="#222223" stroke-width="0.630746"/>
<path d="M252.053 712.316H210.211V754.158H252.053V712.316Z" stroke="#222223" stroke-width="0.630746"/>
<path d="M293.895 712.316H252.053V754.158H293.895V712.316Z" stroke="#222223" stroke-width="0.630746"/>
<path d="M335.737 712.316H293.895V754.158H335.737V712.316Z" stroke="#222223" stroke-width="0.630746"/>
<path d="M377.579 712.316H335.737V754.158H377.579V712.316Z" stroke="#222223" stroke-width="0.630746"/>
<path d="M419.421 712.316H377.579V754.158H419.421V712.316Z" stroke="#222223" stroke-width="0.630746"/>
<path d="M461.263 712.316H419.421V754.158H461.263V712.316Z" stroke="#222223" stroke-width="0.630746"/>
<path d="M503.105 712.316H461.263V754.158H503.105V712.316Z" stroke="#222223" stroke-width="0.630746"/>
<path d="M544.947 712.316H503.105V754.158H544.947V712.316Z" stroke="#222223" stroke-width="0.630746"/>
<path d="M586.79 712.316H544.948V754.158H586.79V712.316Z" stroke="#222223" stroke-width="0.630746"/>
<path d="M628.632 712.316H586.79V754.158H628.632V712.316Z" stroke="#222223" stroke-width="0.630746"/>
<path d="M670.474 712.316H628.632V754.158H670.474V712.316Z" stroke="#222223" stroke-width="0.630746"/>
<path d="M712.316 712.316H670.474V754.158H712.316V712.316Z" stroke="#222223" stroke-width="0.630746"/>
<path d="M754.158 712.316H712.316V754.158H754.158V712.316Z" stroke="#222223" stroke-width="0.630746"/>
<path d="M796 712.316H754.158V754.158H796V712.316Z" stroke="#222223" stroke-width="0.630746"/>
<path d="M42.842 754.158H0.999939V796H42.842V754.158Z" stroke="#222223" stroke-width="0.630746"/>
<path d="M84.6841 754.158H42.842V796H84.6841V754.158Z" stroke="#222223" stroke-width="0.630746"/>
<path d="M126.526 754.158H84.6843V796H126.526V754.158Z" stroke="#222223" stroke-width="0.630746"/>
<path d="M168.368 754.158H126.526V796H168.368V754.158Z" stroke="#222223" stroke-width="0.630746"/>
<path d="M210.211 754.158H168.368V796H210.211V754.158Z" stroke="#222223" stroke-width="0.630746"/>
<path d="M252.053 754.158H210.211V796H252.053V754.158Z" stroke="#222223" stroke-width="0.630746"/>
<path d="M293.895 754.158H252.053V796H293.895V754.158Z" stroke="#222223" stroke-width="0.630746"/>
<path d="M335.737 754.158H293.895V796H335.737V754.158Z" stroke="#222223" stroke-width="0.630746"/>
<path d="M377.579 754.158H335.737V796H377.579V754.158Z" stroke="#222223" stroke-width="0.630746"/>
<path d="M419.421 754.158H377.579V796H419.421V754.158Z" stroke="#222223" stroke-width="0.630746"/>
<path d="M461.263 754.158H419.421V796H461.263V754.158Z" stroke="#222223" stroke-width="0.630746"/>
<path d="M503.105 754.158H461.263V796H503.105V754.158Z" stroke="#222223" stroke-width="0.630746"/>
<path d="M544.947 754.158H503.105V796H544.947V754.158Z" stroke="#222223" stroke-width="0.630746"/>
<path d="M586.79 754.158H544.948V796H586.79V754.158Z" stroke="#222223" stroke-width="0.630746"/>
<path d="M628.632 754.158H586.79V796H628.632V754.158Z" stroke="#222223" stroke-width="0.630746"/>
<path d="M670.474 754.158H628.632V796H670.474V754.158Z" stroke="#222223" stroke-width="0.630746"/>
<path d="M712.316 754.158H670.474V796H712.316V754.158Z" stroke="#222223" stroke-width="0.630746"/>
<path d="M754.158 754.158H712.316V796H754.158V754.158Z" stroke="#222223" stroke-width="0.630746"/>
<path d="M796 754.158H754.158V796H796V754.158Z" stroke="#222223" stroke-width="0.630746"/>
</svg>
