<svg width="23" height="26" viewBox="0 0 23 26" fill="none" xmlns="http://www.w3.org/2000/svg">
<path d="M16.4601 1.095C18.6301 1.9 21.1151 4.07 20.2401 6.59C19.3301 9.46 16.3551 8.97 14.6751 6.1C13.4851 4.07 11.6301 0.0449979 9.18012 1.62C5.85512 3.755 11.5951 2.075 8.06012 5.295C4.07012 8.97 16.0401 8.025 18.3151 10.3C22.9351 14.885 18.6651 23.74 12.7151 24.755C10.0201 25.245 6.87012 24.475 4.80512 22.62C3.51012 21.605 3.16012 19.715 5.05012 18.84C5.50512 18.665 6.03012 18.525 6.38012 18.175C6.83512 17.825 6.76512 17.405 6.24012 17.3C5.12012 16.95 3.44012 18.735 2.32012 17.615C0.710117 16.005 3.82512 12.54 7.18512 12.435C9.18012 12.365 11.3851 13.415 11.9451 15.375C12.3301 16.565 11.5601 18.875 12.5051 19.89C13.4151 20.94 16.2151 20.345 17.0901 19.75C19.9951 18 20.9751 12.75 17.7551 10.86C15.0601 9.285 11.1401 10.965 8.51512 11.63C5.50512 12.435 1.09512 12.26 0.920117 8.235C0.745117 3.405 6.27512 0.885 11.1051 0.57C12.8201 0.464999 14.7451 0.499998 16.4601 1.095Z" fill="white"/>
</svg>
