<svg width="20" height="25" viewBox="0 0 20 25" fill="none" xmlns="http://www.w3.org/2000/svg">
<path d="M13.6133 10.5039C18.6914 12.0078 19.4531 13.2773 19.4531 18.5117C19.4531 18.6484 19.375 18.7852 19.1992 18.9609L15.6055 22.5547C14.8047 23.3555 12.2266 24.4102 9.88281 24.1562C7.51953 23.9219 5.37109 22.3398 5.37109 17.7891L8.96484 14.1953C8.96484 20.2891 12.7734 21.0898 15.8203 20.4648C15.6445 16.5586 14.4922 15.4453 10.0195 14.0977C9.6875 14 9.19922 13.8828 8.53516 13.7852L5.3125 16.9883C5.3125 16.9492 5.25391 16.7539 5.13672 16.4219C5.01953 16.0898 4.96094 15.8945 4.94141 15.8164L7.20703 13.5508C6.34766 13.4336 5.54688 13.3164 4.78516 13.1992C4.02344 13.082 3.63281 13.0039 3.59375 12.9844C0.644531 11.4805 0.957031 7.71094 2.61719 6.01172L6.19141 2.41797C7.12891 1.48047 8.51562 1.20703 10.0195 2.30078L11.9336 0.386719C11.9531 2.78906 12.2852 4.37109 12.5391 5.30859C12.9102 5.91406 13.0469 6.24609 12.9883 6.30469L9.51172 9.78125C11.0742 10.0156 12.9688 10.3281 13.6133 10.5039ZM7.16797 9.39062C7.20703 9.42969 7.91016 9.54688 9.27734 9.72266C9.17969 9.58594 9.08203 9.3125 8.96484 8.88281C8.08594 7.53516 6.66016 5.52344 4.96094 5.21094C4.80469 6.79297 5.39062 8.51172 7.16797 9.39062ZM16.0156 9.99609C15.8398 9.95703 15.7617 9.85938 15.8203 9.68359C15.8398 9.52734 15.9375 9.44922 16.1328 9.46875C16.3477 9.50781 16.5234 9.54688 16.6797 9.60547C16.8555 9.58594 16.9531 9.68359 16.9531 9.91797C16.9336 10.0938 16.8359 10.1719 16.6602 10.1719C16.582 10.1523 16.5234 10.1328 16.5039 10.1133C16.4062 10.0938 16.3281 10.0547 16.2305 10.0352C16.1328 10.0156 16.0547 10.0156 16.0156 9.99609ZM15.0781 10.4648C14.668 10.4648 14.7461 9.97656 15.1172 9.97656C15.8203 10.1328 16.5625 10.2695 17.168 10.7188C17.5391 10.7773 17.4219 11.2852 17.0898 11.1875C16.1523 10.7383 16.1719 10.6992 15.0781 10.4648ZM10.9961 18.8828C10.8594 18.8828 10.7812 18.8242 10.7422 18.707C9.94141 18.1602 9.70703 16.0898 9.62891 15.3867C9.62891 15.2109 9.72656 15.1328 9.90234 15.1328C10.0781 15.1328 10.1562 15.2109 10.1562 15.3867C10.2344 16.0312 10.332 16.5195 10.4297 16.8125C10.4883 17.0664 10.5469 17.2812 10.625 17.418C10.7812 17.8281 10.918 18.1016 11.0547 18.2383C11.1914 18.3945 11.25 18.4922 11.2695 18.5117V18.6289C11.2695 18.8047 11.1719 18.8828 10.9961 18.8828ZM12.0508 19.6445C11.7969 19.5664 11.6211 19.4492 11.5039 19.2734C11.4062 19.1562 11.4062 19.0391 11.543 18.9023C11.6797 18.8242 11.8164 18.8438 11.9336 18.9609C11.9727 19.0195 12.0898 19.0781 12.2852 19.1562C12.6172 19.3125 12.3633 19.8008 12.0508 19.6445Z" fill="white"/>
</svg>
